<svg width="70" height="12" viewBox="0 0 70 12" fill="none" xmlns="http://www.w3.org/2000/svg">
<path d="M2.23656 11L3.46856 8.216H9.13256L10.3646 11H12.3166L7.53256 0.28H5.10056L0.316563 11H2.23656ZM5.61256 3.4L6.23656 1.88H6.36456L6.98856 3.4L8.44456 6.664H4.15656L5.61256 3.4ZM14.4606 11V8.712H14.5726C14.9086 10.296 16.0766 11.16 17.8846 11.16C20.4126 11.16 21.7726 9.48 21.7726 7.032C21.7726 4.552 20.4286 2.888 17.9806 2.888C16.0766 2.888 15.0206 3.864 14.7006 5.208H14.6046V0.28H12.8766V11H14.4606ZM14.6046 7.112V6.984C14.6046 5.288 15.5806 4.456 17.3726 4.456C19.0686 4.456 20.0446 5.112 20.0446 7.032C20.0446 8.936 19.0846 9.576 17.3406 9.576C15.6286 9.576 14.6046 8.776 14.6046 7.112ZM26.7943 11.16C29.4503 11.16 31.2263 9.48 31.2263 7.032C31.2263 4.552 29.4503 2.888 26.7943 2.888C24.1543 2.888 22.3783 4.552 22.3783 7.032C22.3783 9.48 24.1543 11.16 26.7943 11.16ZM26.7943 9.624C24.8743 9.624 24.0743 8.712 24.0743 7.032C24.0743 5.336 24.8743 4.408 26.7943 4.408C28.7303 4.408 29.5303 5.336 29.5303 7.032C29.5303 8.712 28.7303 9.624 26.7943 9.624ZM35.5523 11.16C37.6003 11.16 38.6563 9.88 38.9123 8.536H39.0083V11H40.5923V3.048H38.8803V6.984C38.8803 8.712 38.0643 9.608 36.3043 9.608C34.6243 9.608 33.9363 8.856 33.9363 7.368V3.048H32.2243V7.832C32.2243 9.672 33.3123 11.16 35.5523 11.16ZM47.1382 11V9.448H45.6982C44.7062 9.448 44.2582 9.192 44.2582 8.216V4.488H47.1382V3.048H44.2582V1.304H42.5462V3.048H41.2022V4.488H42.5462V8.312C42.5462 10.248 43.6022 11 45.3142 11H47.1382ZM55.4334 11.16C58.6494 11.16 60.4734 9.464 60.4734 6.552V0.28H58.7454V6.44C58.7454 8.6 57.7854 9.496 55.4334 9.496C53.0814 9.496 52.1214 8.6 52.1214 6.44V0.28H50.4094V6.552C50.4094 9.464 52.2334 11.16 55.4334 11.16ZM65.5247 11.16C67.7647 11.16 69.2367 10.28 69.2367 8.792C69.2367 7.48 68.3727 6.84 66.4847 6.6L64.6447 6.344C63.4447 6.184 63.1247 5.96 63.1247 5.336C63.1247 4.584 63.6367 4.264 65.0927 4.264C66.8527 4.264 67.3327 4.76 67.3327 5.704V5.8H69.0447V5.752C69.0447 3.864 67.5727 2.888 65.1407 2.888C62.6927 2.888 61.4287 3.88 61.4287 5.272C61.4287 6.6 62.3407 7.24 63.8447 7.432L66.0207 7.72C67.1567 7.88 67.5407 8.088 67.5407 8.744C67.5407 9.448 67.0767 9.768 65.5247 9.768C63.8607 9.768 63.2367 9.432 63.2367 8.392V8.264H61.5087V8.312C61.5087 10.152 62.9647 11.16 65.5247 11.16Z" fill="#0E2045"/>
<path d="M2.23656 11V12H2.88757L3.15102 11.4047L2.23656 11ZM3.46856 8.216V7.216H2.81755L2.5541 7.81132L3.46856 8.216ZM9.13256 8.216L10.047 7.81132L9.78357 7.216H9.13256V8.216ZM10.3646 11L9.4501 11.4047L9.71355 12H10.3646V11ZM12.3166 11V12H13.8579L13.2298 10.5925L12.3166 11ZM7.53256 0.28L8.44576 -0.127529L8.18135 -0.72H7.53256V0.28ZM5.10056 0.28V-0.72H4.45177L4.18737 -0.127529L5.10056 0.28ZM0.316563 11L-0.59663 10.5925L-1.22477 12H0.316563V11ZM5.61256 3.4L6.52582 3.80738L6.53194 3.79367L6.53764 3.77977L5.61256 3.4ZM6.23656 1.88V0.879999H5.5661L5.31148 1.50023L6.23656 1.88ZM6.36456 1.88L7.28964 1.50023L7.03502 0.879999H6.36456V1.88ZM6.98856 3.4L6.06348 3.77977L6.06919 3.79367L6.07531 3.80738L6.98856 3.4ZM8.44456 6.664V7.664H9.98562L9.35782 6.25662L8.44456 6.664ZM4.15656 6.664L3.24331 6.25662L2.6155 7.664H4.15656V6.664ZM3.15102 11.4047L4.38302 8.62067L2.5541 7.81132L1.3221 10.5953L3.15102 11.4047ZM3.46856 9.216H9.13256V7.216H3.46856V9.216ZM8.2181 8.62067L9.4501 11.4047L11.279 10.5953L10.047 7.81132L8.2181 8.62067ZM10.3646 12H12.3166V10H10.3646V12ZM13.2298 10.5925L8.44576 -0.127529L6.61937 0.687529L11.4034 11.4075L13.2298 10.5925ZM7.53256 -0.72H5.10056V1.28H7.53256V-0.72ZM4.18737 -0.127529L-0.59663 10.5925L1.22975 11.4075L6.01376 0.687529L4.18737 -0.127529ZM0.316563 12H2.23656V10H0.316563V12ZM6.53764 3.77977L7.16164 2.25977L5.31148 1.50023L4.68748 3.02023L6.53764 3.77977ZM6.23656 2.88H6.36456V0.879999H6.23656V2.88ZM5.43948 2.25977L6.06348 3.77977L7.91364 3.02023L7.28964 1.50023L5.43948 2.25977ZM6.07531 3.80738L7.53131 7.07138L9.35782 6.25662L7.90182 2.99262L6.07531 3.80738ZM8.44456 5.664H4.15656V7.664H8.44456V5.664ZM5.06982 7.07138L6.52582 3.80738L4.69931 2.99262L3.24331 6.25662L5.06982 7.07138ZM14.4606 11V12H15.4606V11H14.4606ZM14.4606 8.712V7.712H13.4606V8.712H14.4606ZM14.5726 8.712L15.5508 8.5045L15.3827 7.712H14.5726V8.712ZM14.7006 5.208V6.208H15.4904L15.6734 5.43962L14.7006 5.208ZM14.6046 5.208H13.6046V6.208H14.6046V5.208ZM14.6046 0.28H15.6046V-0.72H14.6046V0.28ZM12.8766 0.28V-0.72H11.8766V0.28H12.8766ZM12.8766 11H11.8766V12H12.8766V11ZM15.4606 11V8.712H13.4606V11H15.4606ZM14.4606 9.712H14.5726V7.712H14.4606V9.712ZM13.5943 8.9195C13.8055 9.91523 14.2983 10.7547 15.0821 11.3341C15.8558 11.9061 16.8248 12.16 17.8846 12.16V10.16C17.1363 10.16 16.6173 9.9819 16.271 9.72588C15.9348 9.47732 15.6756 9.09277 15.5508 8.5045L13.5943 8.9195ZM17.8846 12.16C19.3815 12.16 20.6419 11.6546 21.5185 10.6844C22.3821 9.72871 22.7726 8.43395 22.7726 7.032H20.7726C20.7726 8.07805 20.483 8.84729 20.0346 9.34357C19.5992 9.8254 18.9156 10.16 17.8846 10.16V12.16ZM22.7726 7.032C22.7726 5.61981 22.3893 4.32384 21.5437 3.36756C20.6831 2.3944 19.4446 1.888 17.9806 1.888V3.888C18.9645 3.888 19.622 4.21359 20.0454 4.69244C20.4838 5.18816 20.7726 5.96419 20.7726 7.032H22.7726ZM17.9806 1.888C16.8558 1.888 15.8907 2.17835 15.1414 2.74789C14.3905 3.31871 13.9337 4.11163 13.7278 4.97638L15.6734 5.43962C15.7875 4.96037 16.0186 4.59329 16.3517 4.34011C16.6865 4.08565 17.2013 3.888 17.9806 3.888V1.888ZM14.7006 4.208H14.6046V6.208H14.7006V4.208ZM15.6046 5.208V0.28H13.6046V5.208H15.6046ZM14.6046 -0.72H12.8766V1.28H14.6046V-0.72ZM11.8766 0.28V11H13.8766V0.28H11.8766ZM12.8766 12H14.4606V10H12.8766V12ZM15.6046 7.112V6.984H13.6046V7.112H15.6046ZM15.6046 6.984C15.6046 6.32872 15.7874 6.00514 15.9845 5.82824C16.2011 5.63381 16.6135 5.456 17.3726 5.456V3.456C16.3396 3.456 15.368 3.69419 14.6487 4.33976C13.9098 5.00286 13.6046 5.94328 13.6046 6.984H15.6046ZM17.3726 5.456C18.1232 5.456 18.4945 5.60688 18.6814 5.77249C18.8427 5.91537 19.0446 6.22939 19.0446 7.032H21.0446C21.0446 5.91461 20.7584 4.94063 20.0077 4.2755C19.2826 3.63312 18.318 3.456 17.3726 3.456V5.456ZM19.0446 7.032C19.0446 7.82895 18.8457 8.12842 18.6906 8.26318C18.5044 8.42498 18.1257 8.576 17.3406 8.576V10.576C18.2994 10.576 19.2727 10.407 20.0025 9.77282C20.7634 9.11158 21.0446 8.13905 21.0446 7.032H19.0446ZM17.3406 8.576C16.6232 8.576 16.2095 8.4068 15.9861 8.21284C15.787 8.04 15.6046 7.73123 15.6046 7.112H13.6046C13.6046 8.15677 13.9341 9.08 14.675 9.72316C15.3916 10.3452 16.346 10.576 17.3406 10.576V8.576ZM26.7943 12.16C28.334 12.16 29.6997 11.6703 30.6895 10.7442C31.6846 9.81323 32.2263 8.50855 32.2263 7.032H30.2263C30.2263 8.00345 29.88 8.76277 29.3231 9.28376C28.7609 9.80972 27.9106 10.16 26.7943 10.16V12.16ZM32.2263 7.032C32.2263 5.54263 31.6868 4.23278 30.6895 3.29976C29.6981 2.37223 28.3315 1.888 26.7943 1.888V3.888C27.9131 3.888 28.7625 4.23577 29.3231 4.76024C29.8778 5.27922 30.2263 6.04137 30.2263 7.032H32.2263ZM26.7943 1.888C25.2636 1.888 23.901 2.37315 22.9122 3.30064C21.9177 4.23342 21.3783 5.54273 21.3783 7.032H23.3783C23.3783 6.04127 23.7269 5.27858 24.2804 4.75936C24.8396 4.23485 25.685 3.888 26.7943 3.888V1.888ZM21.3783 7.032C21.3783 8.50844 21.9199 9.81258 22.9122 10.7434C23.8994 11.6694 25.2611 12.16 26.7943 12.16V10.16C25.6875 10.16 24.8412 9.81064 24.2804 9.28464C23.7248 8.76342 23.3783 8.00356 23.3783 7.032H21.3783ZM26.7943 8.624C25.9752 8.624 25.6 8.42867 25.4198 8.24928C25.2409 8.0712 25.0743 7.72974 25.0743 7.032H23.0743C23.0743 8.01426 23.3077 8.9688 24.0088 9.66672C24.7086 10.3633 25.6934 10.624 26.7943 10.624V8.624ZM25.0743 7.032C25.0743 6.32397 25.2421 5.97207 25.4246 5.7879C25.6057 5.60514 25.9795 5.408 26.7943 5.408V3.408C25.6891 3.408 24.7029 3.67486 24.004 4.3801C23.3065 5.08393 23.0743 6.04403 23.0743 7.032H25.0743ZM26.7943 5.408C27.6192 5.408 27.9971 5.6062 28.1796 5.78951C28.3626 5.97329 28.5303 6.32398 28.5303 7.032H30.5303C30.5303 6.04402 30.2981 5.08271 29.597 4.37849C28.8955 3.6738 27.9054 3.408 26.7943 3.408V5.408ZM28.5303 7.032C28.5303 7.72972 28.3638 8.06997 28.1844 8.24769C28.0028 8.42765 27.6235 8.624 26.7943 8.624V10.624C27.9011 10.624 28.8898 10.3644 29.5922 9.66831C30.2969 8.97003 30.5303 8.01428 30.5303 7.032H28.5303ZM38.9123 8.536V7.536H38.0848L37.93 8.34889L38.9123 8.536ZM39.0083 8.536H40.0083V7.536H39.0083V8.536ZM39.0083 11H38.0083V12H39.0083V11ZM40.5923 11V12H41.5923V11H40.5923ZM40.5923 3.048H41.5923V2.048H40.5923V3.048ZM38.8803 3.048V2.048H37.8803V3.048H38.8803ZM33.9363 3.048H34.9363V2.048H33.9363V3.048ZM32.2243 3.048V2.048H31.2243V3.048H32.2243ZM35.5523 12.16C36.7972 12.16 37.8153 11.7655 38.5667 11.1012C39.3072 10.4465 39.7312 9.58124 39.8947 8.72311L37.93 8.34889C37.8374 8.83476 37.6055 9.28146 37.242 9.6028C36.8894 9.91453 36.3554 10.16 35.5523 10.16V12.16ZM38.9123 9.536H39.0083V7.536H38.9123V9.536ZM38.0083 8.536V11H40.0083V8.536H38.0083ZM39.0083 12H40.5923V10H39.0083V12ZM41.5923 11V3.048H39.5923V11H41.5923ZM40.5923 2.048H38.8803V4.048H40.5923V2.048ZM37.8803 3.048V6.984H39.8803V3.048H37.8803ZM37.8803 6.984C37.8803 7.70782 37.7084 8.06726 37.5322 8.25011C37.3628 8.4259 37.0256 8.608 36.3043 8.608V10.608C37.3431 10.608 38.2938 10.3421 38.9724 9.63789C39.6442 8.94074 39.8803 7.98818 39.8803 6.984H37.8803ZM36.3043 8.608C35.5905 8.608 35.3066 8.44567 35.1899 8.33145C35.0783 8.22221 34.9363 7.97712 34.9363 7.368H32.9363C32.9363 8.24688 33.1383 9.12179 33.7907 9.76055C34.4381 10.3943 35.3382 10.608 36.3043 10.608V8.608ZM34.9363 7.368V3.048H32.9363V7.368H34.9363ZM33.9363 2.048H32.2243V4.048H33.9363V2.048ZM31.2243 3.048V7.832H33.2243V3.048H31.2243ZM31.2243 7.832C31.2243 8.94252 31.5537 10.0357 32.3113 10.8618C33.082 11.7023 34.1986 12.16 35.5523 12.16V10.16C34.6661 10.16 34.1187 9.87365 33.7854 9.51016C33.4389 9.13235 33.2243 8.56148 33.2243 7.832H31.2243ZM47.1382 11V12H48.1382V11H47.1382ZM47.1382 9.448H48.1382V8.448H47.1382V9.448ZM44.2582 4.488V3.488H43.2582V4.488H44.2582ZM47.1382 4.488V5.488H48.1382V4.488H47.1382ZM47.1382 3.048H48.1382V2.048H47.1382V3.048ZM44.2582 3.048H43.2582V4.048H44.2582V3.048ZM44.2582 1.304H45.2582V0.304H44.2582V1.304ZM42.5462 1.304V0.304H41.5462V1.304H42.5462ZM42.5462 3.048V4.048H43.5462V3.048H42.5462ZM41.2022 3.048V2.048H40.2022V3.048H41.2022ZM41.2022 4.488H40.2022V5.488H41.2022V4.488ZM42.5462 4.488H43.5462V3.488H42.5462V4.488ZM48.1382 11V9.448H46.1382V11H48.1382ZM47.1382 8.448H45.6982V10.448H47.1382V8.448ZM45.6982 8.448C45.4861 8.448 45.3506 8.43363 45.2661 8.41534C45.185 8.39781 45.1901 8.38499 45.2252 8.41261C45.2699 8.44785 45.2866 8.4872 45.2856 8.48438C45.2793 8.46679 45.2582 8.39107 45.2582 8.216H43.2582C43.2582 8.83075 43.3981 9.51911 43.9872 9.98339C44.5098 10.3953 45.1773 10.448 45.6982 10.448V8.448ZM45.2582 8.216V4.488H43.2582V8.216H45.2582ZM44.2582 5.488H47.1382V3.488H44.2582V5.488ZM48.1382 4.488V3.048H46.1382V4.488H48.1382ZM47.1382 2.048H44.2582V4.048H47.1382V2.048ZM45.2582 3.048V1.304H43.2582V3.048H45.2582ZM44.2582 0.304H42.5462V2.304H44.2582V0.304ZM41.5462 1.304V3.048H43.5462V1.304H41.5462ZM42.5462 2.048H41.2022V4.048H42.5462V2.048ZM40.2022 3.048V4.488H42.2022V3.048H40.2022ZM41.2022 5.488H42.5462V3.488H41.2022V5.488ZM41.5462 4.488V8.312H43.5462V4.488H41.5462ZM41.5462 8.312C41.5462 9.45771 41.863 10.445 42.6194 11.1254C43.3553 11.7875 44.3338 12 45.3142 12V10C44.5825 10 44.1771 9.83653 43.957 9.63855C43.7574 9.45903 43.5462 9.10229 43.5462 8.312H41.5462ZM45.3142 12H47.1382V10H45.3142V12ZM60.4734 0.28H61.4734V-0.72H60.4734V0.28ZM58.7454 0.28V-0.72H57.7454V0.28H58.7454ZM52.1214 0.28H53.1214V-0.72H52.1214V0.28ZM50.4094 0.28V-0.72H49.4094V0.28H50.4094ZM55.4334 12.16C57.2087 12.16 58.7401 11.6909 59.8359 10.6845C60.9437 9.66703 61.4734 8.22262 61.4734 6.552H59.4734C59.4734 7.79338 59.0911 8.65297 58.483 9.21149C57.8628 9.78108 56.8742 10.16 55.4334 10.16V12.16ZM61.4734 6.552V0.28H59.4734V6.552H61.4734ZM60.4734 -0.72H58.7454V1.28H60.4734V-0.72ZM57.7454 0.28V6.44H59.7454V0.28H57.7454ZM57.7454 6.44C57.7454 7.39646 57.5305 7.82368 57.2924 8.04393C57.035 8.28202 56.5196 8.496 55.4334 8.496V10.496C56.6993 10.496 57.8399 10.262 58.6505 9.51207C59.4804 8.74432 59.7454 7.64354 59.7454 6.44H57.7454ZM55.4334 8.496C54.3473 8.496 53.8319 8.28202 53.5745 8.04393C53.3364 7.82368 53.1214 7.39646 53.1214 6.44H51.1214C51.1214 7.64354 51.3865 8.74432 52.2164 9.51207C53.027 10.262 54.1676 10.496 55.4334 10.496V8.496ZM53.1214 6.44V0.28H51.1214V6.44H53.1214ZM52.1214 -0.72H50.4094V1.28H52.1214V-0.72ZM49.4094 0.28V6.552H51.4094V0.28H49.4094ZM49.4094 6.552C49.4094 8.22255 49.9391 9.66642 51.0442 10.6837C52.1376 11.6903 53.665 12.16 55.4334 12.16V10.16C54.0019 10.16 53.0173 9.78171 52.3987 9.21227C51.7918 8.65358 51.4094 7.79345 51.4094 6.552H49.4094ZM66.4847 6.6L66.3469 7.59053L66.3586 7.59202L66.4847 6.6ZM64.6447 6.344L64.7825 5.35352L64.7769 5.35277L64.6447 6.344ZM67.3327 5.8H66.3327V6.8H67.3327V5.8ZM69.0447 5.8V6.8H70.0447V5.8H69.0447ZM63.8447 7.432L63.9759 6.44063L63.9713 6.44005L63.8447 7.432ZM66.0207 7.72L66.1602 6.72974L66.1519 6.72865L66.0207 7.72ZM63.2367 8.264H64.2367V7.264H63.2367V8.264ZM61.5087 8.264V7.264H60.5087V8.264H61.5087ZM65.5247 12.16C66.7563 12.16 67.8903 11.921 68.7516 11.3814C69.6521 10.8172 70.2367 9.92443 70.2367 8.792H68.2367C68.2367 9.14757 68.0853 9.43878 67.6897 9.68659C67.255 9.95896 66.5331 10.16 65.5247 10.16V12.16ZM70.2367 8.792C70.2367 7.88142 69.918 7.08061 69.1853 6.50672C68.5192 5.98509 67.6136 5.73546 66.6108 5.60798L66.3586 7.59202C67.2438 7.70454 67.7141 7.89491 67.9521 8.08128C68.1233 8.21539 68.2367 8.39058 68.2367 8.792H70.2367ZM66.6225 5.60954L64.7825 5.35354L64.5069 7.33446L66.3469 7.59046L66.6225 5.60954ZM64.7769 5.35277C64.496 5.31532 64.2989 5.2781 64.1597 5.24082C64.017 5.20257 63.9801 5.17574 63.9911 5.18306C64.0196 5.20216 64.0748 5.25398 64.1094 5.33289C64.136 5.39367 64.1247 5.4141 64.1247 5.336H62.1247C62.1247 5.5699 62.1534 5.85233 62.2775 6.13561C62.4096 6.43702 62.6198 6.67184 62.8783 6.84494C63.3244 7.14363 63.9243 7.2568 64.5125 7.33523L64.7769 5.35277ZM64.1247 5.336C64.1247 5.25823 64.1382 5.26743 64.1142 5.31342C64.0848 5.36995 64.0459 5.39356 64.0521 5.39003C64.0721 5.3788 64.1503 5.34271 64.3339 5.31238C64.5145 5.28255 64.7609 5.264 65.0927 5.264V3.264C64.3422 3.264 63.6237 3.33699 63.0732 3.64597C62.7695 3.81644 62.5116 4.06105 62.3406 4.38907C62.1752 4.70657 62.1247 5.03777 62.1247 5.336H64.1247ZM65.0927 5.264C65.9317 5.264 66.2204 5.39315 66.2928 5.4447C66.305 5.45341 66.3009 5.45025 66.3031 5.4557C66.3116 5.47664 66.3327 5.54613 66.3327 5.704H68.3327C68.3327 5.05816 68.1582 4.31753 67.4526 3.8153C66.845 3.38284 66.0136 3.264 65.0927 3.264V5.264ZM66.3327 5.704V5.8H68.3327V5.704H66.3327ZM67.3327 6.8H69.0447V4.8H67.3327V6.8ZM70.0447 5.8V5.752H68.0447V5.8H70.0447ZM70.0447 5.752C70.0447 4.51134 69.5414 3.48075 68.5859 2.79827C67.6795 2.1508 66.468 1.888 65.1407 1.888V3.888C66.2454 3.888 66.9859 4.1132 67.4234 4.42573C67.812 4.70324 68.0447 5.10466 68.0447 5.752H70.0447ZM65.1407 1.888C63.8 1.888 62.6507 2.1569 61.8053 2.73048C60.9216 3.33003 60.4287 4.22957 60.4287 5.272H62.4287C62.4287 4.92243 62.5678 4.62997 62.9281 4.38552C63.3267 4.1151 64.0334 3.888 65.1407 3.888V1.888ZM60.4287 5.272C60.4287 6.19469 60.7606 6.98092 61.4289 7.5432C62.0535 8.06872 62.8752 8.31635 63.7181 8.42395L63.9713 6.44005C63.3102 6.35565 62.9239 6.18728 62.7165 6.0128C62.5528 5.87508 62.4287 5.67731 62.4287 5.272H60.4287ZM63.7135 8.42335L65.8895 8.71135L66.1519 6.72865L63.9759 6.44065L63.7135 8.42335ZM65.8812 8.71023C66.1486 8.74789 66.3403 8.78426 66.4795 8.82142C66.6221 8.85947 66.6661 8.88728 66.6634 8.88557C66.6452 8.87376 66.5932 8.83015 66.5581 8.75545C66.5294 8.69457 66.5407 8.67242 66.5407 8.744H68.5407C68.5407 8.48758 68.5039 8.19343 68.3678 7.90405C68.2252 7.60085 68.0062 7.37224 67.7499 7.20643C67.3038 6.91772 66.7138 6.80775 66.1602 6.72977L65.8812 8.71023ZM66.5407 8.744C66.5407 8.81448 66.5286 8.79326 66.5586 8.73603C66.595 8.66676 66.6429 8.63828 66.6382 8.64081C66.6184 8.65153 66.5362 8.68826 66.3397 8.71905C66.147 8.74923 65.8828 8.768 65.5247 8.768V10.768C66.316 10.768 67.0432 10.6961 67.5912 10.3992C67.8965 10.2337 68.1574 9.99324 68.3293 9.66597C68.4948 9.35074 68.5407 9.02552 68.5407 8.744H66.5407ZM65.5247 8.768C65.1369 8.768 64.8451 8.74803 64.6263 8.71231C64.4047 8.67614 64.302 8.63058 64.2635 8.60794C64.2474 8.5985 64.2468 8.59557 64.2527 8.60186C64.2553 8.6046 64.2579 8.60789 64.2602 8.61129C64.2625 8.61464 64.2634 8.61664 64.2633 8.61641C64.2626 8.6149 64.2367 8.55846 64.2367 8.392H62.2367C62.2367 8.74554 62.2888 9.1211 62.457 9.47509C62.6331 9.8455 62.9073 10.1307 63.2499 10.3321C63.8675 10.6951 64.6852 10.768 65.5247 10.768V8.768ZM64.2367 8.392V8.264H62.2367V8.392H64.2367ZM63.2367 7.264H61.5087V9.264H63.2367V7.264ZM60.5087 8.264V8.312H62.5087V8.264H60.5087ZM60.5087 8.312C60.5087 9.53419 61.0126 10.5612 61.9807 11.2434C62.8986 11.8903 64.1363 12.16 65.5247 12.16V10.16C64.3531 10.16 63.5827 9.92569 63.1327 9.60857C62.7328 9.32677 62.5087 8.92981 62.5087 8.312H60.5087Z" fill="black"/>
</svg>
