<svg width="70" height="12" viewBox="0 0 70 12" fill="none" xmlns="http://www.w3.org/2000/svg">
<path d="M2.23656 11L3.46856 8.216H9.13256L10.3646 11H12.3166L7.53256 0.28H5.10056L0.316563 11H2.23656ZM5.61256 3.4L6.23656 1.88H6.36456L6.98856 3.4L8.44456 6.664H4.15656L5.61256 3.4ZM14.4606 11V8.712H14.5726C14.9086 10.296 16.0766 11.16 17.8846 11.16C20.4126 11.16 21.7726 9.48 21.7726 7.032C21.7726 4.552 20.4286 2.888 17.9806 2.888C16.0766 2.888 15.0206 3.864 14.7006 5.208H14.6046V0.28H12.8766V11H14.4606ZM14.6046 7.112V6.984C14.6046 5.288 15.5806 4.456 17.3726 4.456C19.0686 4.456 20.0446 5.112 20.0446 7.032C20.0446 8.936 19.0846 9.576 17.3406 9.576C15.6286 9.576 14.6046 8.776 14.6046 7.112ZM26.7943 11.16C29.4503 11.16 31.2263 9.48 31.2263 7.032C31.2263 4.552 29.4503 2.888 26.7943 2.888C24.1543 2.888 22.3783 4.552 22.3783 7.032C22.3783 9.48 24.1543 11.16 26.7943 11.16ZM26.7943 9.624C24.8743 9.624 24.0743 8.712 24.0743 7.032C24.0743 5.336 24.8743 4.408 26.7943 4.408C28.7303 4.408 29.5303 5.336 29.5303 7.032C29.5303 8.712 28.7303 9.624 26.7943 9.624ZM35.5523 11.16C37.6003 11.16 38.6563 9.88 38.9123 8.536H39.0083V11H40.5923V3.048H38.8803V6.984C38.8803 8.712 38.0643 9.608 36.3043 9.608C34.6243 9.608 33.9363 8.856 33.9363 7.368V3.048H32.2243V7.832C32.2243 9.672 33.3123 11.16 35.5523 11.16ZM47.1382 11V9.448H45.6982C44.7062 9.448 44.2582 9.192 44.2582 8.216V4.488H47.1382V3.048H44.2582V1.304H42.5462V3.048H41.2022V4.488H42.5462V8.312C42.5462 10.248 43.6022 11 45.3142 11H47.1382ZM55.4334 11.16C58.6494 11.16 60.4734 9.464 60.4734 6.552V0.28H58.7454V6.44C58.7454 8.6 57.7854 9.496 55.4334 9.496C53.0814 9.496 52.1214 8.6 52.1214 6.44V0.28H50.4094V6.552C50.4094 9.464 52.2334 11.16 55.4334 11.16ZM65.5247 11.16C67.7647 11.16 69.2367 10.28 69.2367 8.792C69.2367 7.48 68.3727 6.84 66.4847 6.6L64.6447 6.344C63.4447 6.184 63.1247 5.96 63.1247 5.336C63.1247 4.584 63.6367 4.264 65.0927 4.264C66.8527 4.264 67.3327 4.76 67.3327 5.704V5.8H69.0447V5.752C69.0447 3.864 67.5727 2.888 65.1407 2.888C62.6927 2.888 61.4287 3.88 61.4287 5.272C61.4287 6.6 62.3407 7.24 63.8447 7.432L66.0207 7.72C67.1567 7.88 67.5407 8.088 67.5407 8.744C67.5407 9.448 67.0767 9.768 65.5247 9.768C63.8607 9.768 63.2367 9.432 63.2367 8.392V8.264H61.5087V8.312C61.5087 10.152 62.9647 11.16 65.5247 11.16Z" fill="#0E2045"/>
</svg>
