<svg width="61" height="12" viewBox="0 0 61 12" fill="none" xmlns="http://www.w3.org/2000/svg">
<path d="M6.08756 11.16C9.12756 11.16 11.2236 9.56 11.2236 6.984V6.776H9.31956V6.984C9.31956 8.632 8.27956 9.496 6.10356 9.496C3.59156 9.496 2.37556 8.312 2.37556 5.64C2.37556 2.968 3.59156 1.768 6.10356 1.768C8.27956 1.768 9.31956 2.648 9.31956 4.28V4.504H11.2236V4.28C11.2236 1.72 9.11156 0.12 6.08756 0.12C2.75956 0.12 0.551562 2.296 0.551562 5.64C0.551562 8.984 2.75956 11.16 6.08756 11.16ZM16.3206 11.16C18.9766 11.16 20.7526 9.48 20.7526 7.032C20.7526 4.552 18.9766 2.888 16.3206 2.888C13.6806 2.888 11.9046 4.552 11.9046 7.032C11.9046 9.48 13.6806 11.16 16.3206 11.16ZM16.3206 9.624C14.4006 9.624 13.6006 8.712 13.6006 7.032C13.6006 5.336 14.4006 4.408 16.3206 4.408C18.2566 4.408 19.0566 5.336 19.0566 7.032C19.0566 8.712 18.2566 9.624 16.3206 9.624ZM23.4946 11V7.064C23.4946 5.336 24.2786 4.44 26.0226 4.44C27.6706 4.44 28.3426 5.192 28.3426 6.68V11H30.0706V6.216C30.0706 4.376 28.9826 2.888 26.7746 2.888C24.7586 2.888 23.7026 4.168 23.4626 5.512H23.3506V3.048H21.7666V11H23.4946ZM36.5863 11V9.448H35.1463C34.1543 9.448 33.7063 9.192 33.7063 8.216V4.488H36.5863V3.048H33.7063V1.304H31.9943V3.048H30.6503V4.488H31.9943V8.312C31.9943 10.248 33.0503 11 34.7623 11H36.5863ZM39.7632 11.16C41.5712 11.16 42.8352 10.36 43.2512 9.016H43.3632V11H44.9472V6.168C44.9472 4.264 43.8112 2.888 41.2832 2.888C38.7552 2.888 37.2512 4.248 37.2512 6.056V6.12H38.9632V6.056C38.9632 4.888 39.6832 4.408 41.1552 4.408C42.6752 4.408 43.2512 4.872 43.2512 6.184V6.648L39.6352 7.032C38.0672 7.208 37.0752 7.848 37.0752 9.08C37.0752 10.392 38.1152 11.16 39.7632 11.16ZM38.8032 8.968C38.8032 8.344 39.2352 8.136 40.1312 8.024L43.2512 7.672C43.2512 9.24 42.0352 9.912 40.2272 9.912C39.2352 9.912 38.8032 9.608 38.8032 8.968ZM50.2657 11.16C52.6497 11.16 54.3937 9.816 54.3937 7.832V7.656H52.6817V7.768C52.6817 9 51.7857 9.608 50.2337 9.608C48.4417 9.608 47.6417 8.744 47.6417 7.032C47.6417 5.288 48.4417 4.44 50.2337 4.44C51.7857 4.44 52.6817 5.048 52.6817 6.28V6.376H54.3937V6.216C54.3937 4.232 52.6497 2.888 50.2657 2.888C47.6417 2.888 45.9297 4.552 45.9297 7.032C45.9297 9.48 47.6417 11.16 50.2657 11.16ZM60.6476 11V9.448H59.2076C58.2156 9.448 57.7676 9.192 57.7676 8.216V4.488H60.6476V3.048H57.7676V1.304H56.0556V3.048H54.7116V4.488H56.0556V8.312C56.0556 10.248 57.1116 11 58.8236 11H60.6476Z" fill="#0E2045"/>
</svg>
