<svg width="124" height="35" viewBox="0 0 124 35" fill="none" xmlns="http://www.w3.org/2000/svg">
<g filter="url(#filter0_d_7_3)">
<path d="M18.1914 0C22.4676 0.0583108 26.7048 1.67158 30.4756 4.62599C30.5144 4.66486 30.5533 4.70373 30.6116 4.72317C31.4863 5.15078 31.5057 5.86995 31.3308 6.6863C31.0392 8.1052 30.8643 9.56296 30.5144 10.9624C29.6009 14.636 28.0265 18.018 25.5192 20.9141C23.42 23.3437 20.8543 25.0736 17.9193 26.2981C17.8027 26.3565 17.6083 26.3565 17.4917 26.2981C11.7189 23.888 7.87043 19.6507 5.79068 13.8002C5.18814 12.1481 4.7994 10.3988 4.39123 8.6883C4.15798 7.71646 4.09967 6.70574 4.00249 5.69502C3.98305 5.53952 4.08024 5.34515 4.19686 5.24797C6.31548 3.44033 8.64791 2.002 11.2719 1.08847C13.3322 0.369303 15.4703 0.0194369 18.1914 0ZM26.3549 5.77276C26.4327 5.32571 26.491 4.8981 26.5687 4.48993C26.6271 4.21781 26.5104 4.08175 26.2966 3.96513C22.6425 2.002 18.7745 1.28284 14.6734 2.002C11.4468 2.56567 8.5896 3.98457 6.04337 6.02544C5.94618 6.10319 5.82956 6.25869 5.82956 6.35587C5.86843 6.82236 5.96562 7.28884 6.04337 7.83308C7.07352 7.13335 8.04537 6.49193 9.07552 5.7922C9.15327 6.23925 9.23102 6.55024 9.28933 6.86123C9.58088 8.78549 10.0085 10.6903 10.7082 12.5174C11.5634 14.7332 12.788 16.7352 14.5179 18.4068C14.7511 18.6206 14.926 18.6983 15.1982 18.4845C15.4703 18.2513 15.8007 18.0763 16.0923 17.8625C17.8804 16.6574 19.4937 15.2969 20.5433 13.3532C20.9126 12.6923 21.2042 11.9926 21.5346 11.3123C21.6512 11.0402 21.8067 10.943 22.0788 11.1179C22.3315 11.2734 22.6231 11.4095 22.8952 11.5455C23.1673 11.6816 23.245 11.8371 23.1284 12.1481C22.1954 14.4222 20.9126 16.4436 18.9495 17.9403C18.1526 18.5428 17.2973 19.0871 16.4615 19.6313C16.0339 19.9034 15.5869 20.1755 15.1593 20.4476C14.4012 20.9336 14.0514 20.2921 13.5071 19.7868C12.8852 19.2037 12.2826 18.6011 11.7384 17.9403C9.79469 15.5495 8.68679 12.7312 8.00649 9.75733C7.92875 9.40747 7.851 9.07704 7.75381 8.6883C7.30676 8.96042 6.91803 9.19366 6.52929 9.46578C6.45154 9.52409 6.39323 9.69902 6.41267 9.81565C6.82084 11.701 7.40395 13.5475 8.23974 15.2969C10.1834 19.4175 13.2156 22.4496 17.3556 24.335C17.4917 24.3933 17.6666 24.4711 17.7833 24.4322C18.3081 24.2184 18.8329 23.9463 19.416 23.6547C19.241 23.5575 19.1633 23.4992 19.0855 23.4604C18.172 22.9939 17.2779 22.5274 16.3644 22.0415C16.2672 21.9832 16.1894 21.886 16.0923 21.8082C16.1894 21.711 16.2672 21.5944 16.3644 21.5361C16.8697 21.2251 17.3945 20.8947 17.9193 20.6031C21.5929 18.5234 23.8087 15.3163 25.0721 11.3512C25.111 11.254 25.0527 11.0207 24.9555 10.9819C23.5366 10.1461 22.1177 9.29084 20.5044 8.86323C18.6968 8.37731 16.8697 8.33844 15.0621 8.80492C14.8094 8.86323 14.6928 8.80493 14.6345 8.55225C14.5567 8.18295 14.4596 7.81364 14.3624 7.44434C14.3041 7.19166 14.4401 7.07504 14.6539 7.03616C16.7142 6.5308 18.7551 6.53081 20.8154 7.07504C23.0701 7.65815 25.0138 8.90211 26.9186 10.1849C27.1713 10.3599 27.2102 10.5737 27.1324 10.8264C26.8603 11.6427 26.6271 12.4785 26.2966 13.2949C24.9555 16.6769 22.8952 19.4952 19.8241 21.5167C19.7464 21.5555 19.6686 21.5944 19.6103 21.6333C20.1157 21.9443 20.5822 22.0998 21.0098 22.3136C21.243 22.4302 21.3985 22.3719 21.5735 22.2358C23.0118 21.1474 24.2558 19.884 25.3053 18.4262C27.8905 14.8304 28.9984 10.7097 29.5815 6.39475C29.6009 6.317 29.562 6.20038 29.5232 6.1615C29.115 5.81164 28.6874 5.50065 28.2015 5.13135C28.1626 5.34515 28.1237 5.46177 28.1043 5.59783C27.9682 6.51137 27.8321 7.4249 27.6961 8.33844C27.6378 8.74661 27.56 8.76605 27.2296 8.53281C25.247 7.15279 23.1867 5.98657 20.796 5.46177C18.0554 4.85923 15.3925 5.0536 12.7685 6.00601C12.5159 6.10319 12.4964 6.20038 12.5547 6.43362C12.6714 6.86123 12.7297 7.30828 12.8463 7.75533C13.2156 9.03817 13.546 10.3404 13.9931 11.6233C14.479 13.0227 15.2953 14.2473 16.2477 15.394C16.4616 15.6662 16.4421 15.8022 16.17 15.9966C15.8979 16.1715 15.6452 16.3659 15.3925 16.5797C15.1593 16.7741 15.0232 16.7352 14.8483 16.5019C14.5567 16.0938 14.2069 15.7245 13.9153 15.2969C11.8939 12.4202 11.1553 9.11592 10.6499 5.71446C10.5527 5.01473 10.5722 4.99529 11.2719 4.70373C15.548 2.85723 19.8436 2.85723 24.1197 4.72317C24.8583 4.99529 25.5775 5.38403 26.3549 5.77276Z" fill="#3D73DD"/>
</g>
<path d="M17.6861 10.0294C18.2692 10.0683 18.8523 10.1266 19.416 10.2627C21.0292 10.5931 18.4441 13.7419 17.8999 14.325C17.6666 14.5776 17.5694 14.5582 17.3556 14.3055C16.5976 13.3142 13.7209 10.1849 16.5199 10.0294C16.928 10.01 17.3168 10.01 17.6861 10.0294Z" fill="#FFD841"/>
<path d="M42.2932 20.1949C40.7383 20.1949 39.3971 19.8645 38.2504 19.2231C37.123 18.5817 36.2483 17.6681 35.6264 16.4825C35.0238 15.2968 34.7128 13.9168 34.7128 12.3036C34.7128 10.7097 35.0627 9.31027 35.743 8.12462C36.4233 6.93897 37.4146 6.02543 38.678 5.38402C39.9414 4.7426 41.4574 4.41217 43.2262 4.41217C44.82 4.41217 46.2195 4.64542 47.3857 5.13134C48.5519 5.61726 49.4654 6.29755 50.1069 7.17221C50.7483 8.04688 51.0593 9.09647 51.0593 10.3404V10.5154H47.2496V10.3404C47.2496 9.44633 46.9386 8.78548 46.2972 8.35787C45.6558 7.93026 44.6062 7.71645 43.1485 7.71645C41.9822 7.71645 41.0687 7.87194 40.369 8.1635C39.6692 8.45505 39.1639 8.94097 38.8529 9.60183C38.5419 10.2627 38.367 11.1762 38.367 12.3036C38.367 13.4309 38.5225 14.325 38.8335 15.0053C39.1444 15.6856 39.6304 16.1521 40.3107 16.4631C40.991 16.7546 41.8851 16.9101 42.993 16.9101C44.2175 16.9101 45.1699 16.8324 45.8502 16.6769C46.5305 16.5214 47.0164 16.2298 47.2885 15.8411C47.5606 15.4523 47.6967 14.8887 47.6967 14.1695V13.4892L51.1176 13.4698V13.8196L48.1632 16.6769H47.7356C47.5606 17.3572 47.2496 17.9403 46.822 18.4845C46.3944 19.0093 45.8113 19.4369 45.0727 19.7479C44.3341 20.0394 43.4011 20.1949 42.2932 20.1949ZM51.0982 14.4222H42.4682V11.8759H51.0982V14.4222ZM51.0982 19.9617H47.9105V15.8216L47.6578 15.4135V12.0898H51.0787V19.9617H51.0982Z" fill="#0E2045"/>
<path d="M57.1323 20.195C56.0633 20.195 55.1692 20.0006 54.4695 19.5924C53.7697 19.1842 53.2255 18.64 52.8951 17.9597C52.5646 17.2794 52.3897 16.5019 52.3897 15.6467V8.51337H55.8106V14.4999C55.8106 15.4135 56.0244 16.0743 56.4715 16.5019C56.9185 16.9296 57.6765 17.1239 58.765 17.1239C59.8924 17.1239 60.6893 16.8907 61.1363 16.4436C61.5834 15.9966 61.8166 15.2774 61.8166 14.3056L62.2442 14.2861L62.4969 16.4631H61.8555C61.7583 17.1045 61.5445 17.707 61.1752 18.2707C60.8253 18.8344 60.3005 19.3009 59.6397 19.6507C58.9594 20.02 58.1236 20.195 57.1323 20.195ZM65.2181 19.9617H62.011V16.4242L61.7777 16.3076V8.51337H65.1986V19.9617H65.2181Z" fill="#0E2045"/>
<path d="M70.1248 20.195C68.8809 20.195 67.9285 19.9228 67.2287 19.3786C66.529 18.8344 66.1791 18.0763 66.1791 17.1434C66.1791 16.5602 66.3152 16.0743 66.5873 15.6661C66.8594 15.258 67.2676 14.9276 67.8313 14.6749C68.3755 14.4222 69.0752 14.2473 69.8916 14.1695L75.0424 13.6447V15.6078L70.844 16.0938C70.4358 16.1326 70.1248 16.2104 69.9499 16.327C69.7555 16.4631 69.6583 16.6574 69.6583 16.9295C69.6583 17.2405 69.775 17.4543 70.0277 17.5904C70.2803 17.7265 70.6496 17.8042 71.155 17.8042C71.9713 17.8042 72.6516 17.7265 73.1959 17.571C73.7207 17.4155 74.1288 17.1628 74.4204 16.8324C74.7119 16.4825 74.848 16.0355 74.848 15.4523L75.159 15.4329V17.3766H74.848C74.5953 18.2513 74.0705 18.951 73.2736 19.4758C72.4378 19.9423 71.4077 20.195 70.1248 20.195ZM78.1717 19.9617H74.9646V17.2405L74.7897 17.2017V13.1977C74.7897 12.4591 74.5953 11.9537 74.226 11.6816C73.8567 11.4289 73.2153 11.2928 72.3018 11.2928C71.4271 11.2928 70.8051 11.4289 70.4358 11.6816C70.0471 11.9343 69.8722 12.4007 69.8722 13.0616V13.1588H66.4124V13.081C66.4124 12.1286 66.6651 11.2928 67.1704 10.5737C67.6758 9.85451 68.3949 9.29084 69.3085 8.88267C70.222 8.47449 71.3105 8.28012 72.5739 8.28012C73.8567 8.28012 74.9063 8.49393 75.7421 8.9021C76.5779 9.31028 77.1999 9.89339 77.5886 10.632C77.9968 11.3706 78.1912 12.2453 78.1912 13.256V19.9617H78.1717Z" fill="#0E2045"/>
<path d="M82.9814 19.9617H79.5411V8.51337H82.7287V11.7788L82.9814 11.8954V19.9617ZM82.9814 13.3337H82.3011V11.5455H82.9425C83.0397 10.9235 83.2535 10.3599 83.5645 9.87395C83.8755 9.38803 84.3031 8.99929 84.8279 8.70774C85.3527 8.41618 86.0136 8.28012 86.7716 8.28012C87.6463 8.28012 88.346 8.45506 88.8708 8.82436C89.3956 9.17422 89.7843 9.66014 90.0176 10.2627C90.2703 10.8652 90.3869 11.5455 90.3869 12.2841V14.1889H86.966V13.0033C86.966 12.3619 86.8299 11.8954 86.5384 11.6233C86.2468 11.3317 85.7609 11.1957 85.0612 11.1957C84.3031 11.1957 83.7589 11.3706 83.4479 11.7205C83.1369 12.0703 82.9814 12.6146 82.9814 13.3337Z" fill="#0E2045"/>
<path d="M96.3627 20.1949C95.1771 20.1949 94.1664 19.9422 93.35 19.4563C92.5337 18.9704 91.8922 18.2707 91.4841 17.396C91.0565 16.5019 90.8427 15.4523 90.8427 14.2472C90.8427 13.0227 91.0565 11.9731 91.4646 11.079C91.8922 10.1849 92.4948 9.50461 93.2917 9.01869C94.0886 8.53277 95.0605 8.28009 96.1878 8.28009C97.5484 8.28009 98.598 8.59108 99.3171 9.19362C100.056 9.79617 100.503 10.5931 100.697 11.5455H101.339V14.1306H100.911C100.911 13.1393 100.619 12.4396 100.056 12.0314C99.4921 11.6232 98.6563 11.4094 97.5484 11.4094C96.8098 11.4094 96.2072 11.5066 95.7213 11.6815C95.2354 11.8565 94.8855 12.1675 94.6523 12.5562C94.419 12.9644 94.3024 13.5281 94.3024 14.2278C94.3024 14.9081 94.419 15.4717 94.6523 15.8799C94.8855 16.2881 95.2354 16.5797 95.7213 16.774C96.2072 16.949 96.8098 17.0461 97.5484 17.0461C98.287 17.0461 98.8895 16.949 99.3949 16.774C99.8808 16.5991 100.27 16.2881 100.522 15.8994C100.775 15.4912 100.911 14.9664 100.911 14.3055H101.339L101.572 16.774H100.95C100.736 17.9014 100.25 18.7566 99.4921 19.3203C98.7146 19.9034 97.6844 20.1949 96.3627 20.1949ZM104.332 19.9617H101.125V16.5797L100.892 16.2881V4.64539H104.312V19.9617H104.332Z" fill="#0E2045"/>
<path d="M109.2 19.9617H105.779V4.64539H109.2V19.9617Z" fill="#0E2045"/>
<path d="M112.824 23.8491H110.958V20.7392H113.776C114.204 20.7392 114.515 20.6809 114.729 20.5643C114.942 20.4476 115.117 20.2338 115.253 19.9228L115.739 18.7955L115.389 20.3893L109.597 8.51337H113.485L115.914 13.7419L116.867 16.4436H117.1L118.013 13.7225L120.19 8.51337H124L118.324 20.7975C117.955 21.5944 117.528 22.2164 117.042 22.6634C116.556 23.1105 115.973 23.4215 115.273 23.5964C114.612 23.7713 113.776 23.8491 112.824 23.8491Z" fill="#0E2045"/>
<defs>
<filter id="filter0_d_7_3" x="0" y="0" width="35.4179" height="34.3419" filterUnits="userSpaceOnUse" color-interpolation-filters="sRGB">
<feFlood flood-opacity="0" result="BackgroundImageFix"/>
<feColorMatrix in="SourceAlpha" type="matrix" values="0 0 0 0 0 0 0 0 0 0 0 0 0 0 0 0 0 0 127 0" result="hardAlpha"/>
<feOffset dy="4"/>
<feGaussianBlur stdDeviation="2"/>
<feComposite in2="hardAlpha" operator="out"/>
<feColorMatrix type="matrix" values="0 0 0 0 0 0 0 0 0 0 0 0 0 0 0 0 0 0 0.25 0"/>
<feBlend mode="normal" in2="BackgroundImageFix" result="effect1_dropShadow_7_3"/>
<feBlend mode="normal" in="SourceGraphic" in2="effect1_dropShadow_7_3" result="shape"/>
</filter>
</defs>
</svg>
