<svg width="58" height="27" viewBox="0 0 58 27" fill="none" xmlns="http://www.w3.org/2000/svg">
<path d="M8.8255 15V10.376H15.1295V15H16.8415V4.28H15.1295V8.824H8.8255V4.28H7.0975V15H8.8255ZM22.2809 15.16C24.9369 15.16 26.7129 13.48 26.7129 11.032C26.7129 8.552 24.9369 6.888 22.2809 6.888C19.6409 6.888 17.8649 8.552 17.8649 11.032C17.8649 13.48 19.6409 15.16 22.2809 15.16ZM22.2809 13.624C20.3609 13.624 19.5609 12.712 19.5609 11.032C19.5609 9.336 20.3609 8.408 22.2809 8.408C24.2169 8.408 25.0169 9.336 25.0169 11.032C25.0169 12.712 24.2169 13.624 22.2809 13.624ZM29.4549 15V11.064C29.4549 9.304 30.0469 8.44 31.7589 8.44C33.2949 8.44 33.9029 9.112 33.9029 10.68V15H35.6149V11.064C35.6149 9.304 36.2229 8.44 37.9189 8.44C39.4549 8.44 40.0789 9.112 40.0789 10.68V15H41.7909V10.216C41.7909 8.296 40.7509 6.888 38.6869 6.888C36.6709 6.888 35.7749 8.152 35.5669 9.512H35.4709C35.2469 7.992 34.2709 6.888 32.4629 6.888C30.4789 6.888 29.6149 8.12 29.4069 9.448H29.3109V7.048H27.7269V15H29.4549ZM47.0962 15.16C49.4642 15.16 51.1283 13.992 51.1283 12.296V12.152H49.4002V12.28C49.4002 13.224 48.7122 13.768 47.0482 13.768C45.2082 13.768 44.4562 12.952 44.3922 11.416H51.1442C51.1923 11.176 51.2083 10.952 51.2083 10.664C51.2083 8.248 49.5282 6.888 47.0642 6.888C44.4722 6.888 42.7762 8.552 42.7762 11.032C42.7762 13.688 44.4882 15.16 47.0962 15.16ZM47.0322 8.248C48.7282 8.248 49.5762 8.952 49.5762 10.424V10.456H44.4082C44.5042 9.032 45.2722 8.248 47.0322 8.248Z" fill="#0E2045"/>
<line y1="26" x2="58" y2="26" stroke="#3D73DD" stroke-width="2"/>
</svg>
