<svg width="67" height="12" viewBox="0 0 67 12" fill="none" xmlns="http://www.w3.org/2000/svg">
<path d="M5.46413 11.16C8.63213 11.16 9.96013 9.656 9.96013 8.024C9.96013 6.456 8.90413 5.48 6.76013 5.096L4.15213 4.648C2.88813 4.376 2.34413 4.072 2.34413 3.144C2.34413 2.184 3.11213 1.704 5.06413 1.704C7.28813 1.704 8.07213 2.36 8.07213 3.672V3.88H9.78413V3.784C9.78413 1.688 8.36013 0.12 5.22413 0.12C1.89613 0.12 0.616125 1.688 0.616125 3.24C0.616125 5 1.89613 5.832 3.70413 6.152L6.32813 6.584C7.68813 6.84 8.23213 7.192 8.23213 8.12C8.23213 9.128 7.51213 9.576 5.46413 9.576C3.11213 9.576 2.36013 8.936 2.36013 7.656V7.4H0.632125V7.496C0.632125 9.752 2.26413 11.16 5.46413 11.16ZM14.9469 11.16C17.3149 11.16 18.9789 9.992 18.9789 8.296V8.152H17.2509V8.28C17.2509 9.224 16.5629 9.768 14.8989 9.768C13.0589 9.768 12.3069 8.952 12.2429 7.416H18.9949C19.0429 7.176 19.0589 6.952 19.0589 6.664C19.0589 4.248 17.3789 2.888 14.9149 2.888C12.3229 2.888 10.6269 4.552 10.6269 7.032C10.6269 9.688 12.3389 11.16 14.9469 11.16ZM14.8829 4.248C16.5789 4.248 17.4269 4.952 17.4269 6.424V6.456H12.2589C12.3549 5.032 13.1229 4.248 14.8829 4.248ZM21.8411 11V6.536C21.8411 5.112 22.4011 4.36 23.7611 4.36C24.9451 4.36 25.4251 4.888 25.4251 6.024V6.728H27.1371V5.688C27.1371 4.184 26.3531 2.888 24.5451 2.888C22.9131 2.888 22.0491 3.912 21.8091 5.192H21.6971V3.048H20.1131V11H21.8411ZM33.0865 11L36.8305 3.048H34.9585L32.1265 9.32H31.9985L29.1665 3.048H27.2625L30.9745 11H33.0865ZM39.2049 2.12V0.28H37.4769V2.12H39.2049ZM39.2049 11V3.048H37.4769V11H39.2049ZM44.581 11.16C46.965 11.16 48.709 9.816 48.709 7.832V7.656H46.997V7.768C46.997 9 46.101 9.608 44.549 9.608C42.757 9.608 41.957 8.744 41.957 7.032C41.957 5.288 42.757 4.44 44.549 4.44C46.101 4.44 46.997 5.048 46.997 6.28V6.376H48.709V6.216C48.709 4.232 46.965 2.888 44.581 2.888C41.957 2.888 40.245 4.552 40.245 7.032C40.245 9.48 41.957 11.16 44.581 11.16ZM53.7469 11.16C56.1149 11.16 57.7789 9.992 57.7789 8.296V8.152H56.0509V8.28C56.0509 9.224 55.3629 9.768 53.6989 9.768C51.8589 9.768 51.1069 8.952 51.0429 7.416H57.7949C57.8429 7.176 57.8589 6.952 57.8589 6.664C57.8589 4.248 56.1789 2.888 53.7149 2.888C51.1229 2.888 49.4269 4.552 49.4269 7.032C49.4269 9.688 51.1389 11.16 53.7469 11.16ZM53.6829 4.248C55.3789 4.248 56.2269 4.952 56.2269 6.424V6.456H51.0589C51.1549 5.032 51.9229 4.248 53.6829 4.248ZM62.6731 11.16C64.9131 11.16 66.3851 10.28 66.3851 8.792C66.3851 7.48 65.5211 6.84 63.6331 6.6L61.7931 6.344C60.5931 6.184 60.2731 5.96 60.2731 5.336C60.2731 4.584 60.7851 4.264 62.2411 4.264C64.0011 4.264 64.4811 4.76 64.4811 5.704V5.8H66.1931V5.752C66.1931 3.864 64.7211 2.888 62.2891 2.888C59.8411 2.888 58.5771 3.88 58.5771 5.272C58.5771 6.6 59.4891 7.24 60.9931 7.432L63.1691 7.72C64.3051 7.88 64.6891 8.088 64.6891 8.744C64.6891 9.448 64.2251 9.768 62.6731 9.768C61.0091 9.768 60.3851 9.432 60.3851 8.392V8.264H58.6571V8.312C58.6571 10.152 60.1131 11.16 62.6731 11.16Z" fill="#0E2045"/>
</svg>
