<svg width="118" height="48" viewBox="0 0 118 48" fill="none" xmlns="http://www.w3.org/2000/svg">
<rect x="0.5" y="0.5" width="117" height="47" rx="7.5" stroke="#3D73DD"/>
<path d="M40.3441 29.16C43.5121 29.16 44.8401 27.656 44.8401 26.024C44.8401 24.456 43.7841 23.48 41.6401 23.096L39.0321 22.648C37.7681 22.376 37.2241 22.072 37.2241 21.144C37.2241 20.184 37.9921 19.704 39.9441 19.704C42.1681 19.704 42.9521 20.36 42.9521 21.672V21.88H44.6641V21.784C44.6641 19.688 43.2401 18.12 40.1041 18.12C36.7761 18.12 35.4961 19.688 35.4961 21.24C35.4961 23 36.7761 23.832 38.5841 24.152L41.2081 24.584C42.5681 24.84 43.1121 25.192 43.1121 26.12C43.1121 27.128 42.3921 27.576 40.3441 27.576C37.9921 27.576 37.2401 26.936 37.2401 25.656V25.4H35.5121V25.496C35.5121 27.752 37.1441 29.16 40.3441 29.16ZM47.5549 20.12V18.28H45.8269V20.12H47.5549ZM47.5549 29V21.048H45.8269V29H47.5549ZM52.371 28.28C54.179 28.28 55.251 27.416 55.539 26.216H55.651V28.168C55.651 29.944 54.995 30.44 53.187 30.44C51.491 30.44 50.819 30.008 50.819 28.856H49.107C49.107 30.776 50.739 31.88 53.091 31.88C55.699 31.88 57.363 30.744 57.363 28.072V21.048H55.779V23.032H55.683C55.395 21.64 54.147 20.888 52.483 20.888C50.067 20.888 48.595 22.376 48.595 24.584C48.595 26.792 50.003 28.28 52.371 28.28ZM50.339 24.584C50.339 22.952 51.315 22.392 52.979 22.392C54.659 22.392 55.651 23.08 55.651 24.424V24.648C55.651 26.056 54.691 26.792 52.931 26.792C51.299 26.792 50.339 26.216 50.339 24.584ZM60.4499 29V25.064C60.4499 23.336 61.2339 22.44 62.9779 22.44C64.6259 22.44 65.2979 23.192 65.2979 24.68V29H67.0259V24.216C67.0259 22.376 65.9379 20.888 63.7299 20.888C61.7139 20.888 60.6579 22.168 60.4179 23.512H60.3059V21.048H58.7219V29H60.4499ZM72.548 20.12V18.28H70.82V20.12H72.548ZM72.548 29V21.048H70.82V29H72.548ZM75.6361 29V25.064C75.6361 23.336 76.4201 22.44 78.1641 22.44C79.8121 22.44 80.4841 23.192 80.4841 24.68V29H82.2121V24.216C82.2121 22.376 81.1241 20.888 78.9161 20.888C76.9001 20.888 75.8441 22.168 75.6041 23.512H75.4921V21.048H73.9081V29H75.6361Z" fill="#3D73DD"/>
</svg>
