<svg width="201" height="48" viewBox="0 0 201 48" fill="none" xmlns="http://www.w3.org/2000/svg">
<rect width="201" height="48" rx="8" fill="#3D73DD"/>
<path d="M32.8521 29V24.84H34.8201C36.1641 24.84 36.6601 25.192 37.1401 26.04L38.8521 29H40.8361L39.0441 25.896C38.6601 25.224 38.2761 24.744 37.4441 24.52V24.408C39.4601 24.296 40.6281 23.208 40.6281 21.432C40.6281 19.432 39.1241 18.28 36.6921 18.28H31.1241V29H32.8521ZM32.8521 19.832H36.6761C38.1161 19.832 38.8361 20.36 38.8361 21.672C38.8361 23.016 38.1161 23.512 36.6761 23.512H32.8521V19.832ZM45.6341 29.16C48.0021 29.16 49.6661 27.992 49.6661 26.296V26.152H47.9381V26.28C47.9381 27.224 47.2501 27.768 45.5861 27.768C43.7461 27.768 42.9941 26.952 42.9301 25.416H49.6821C49.7301 25.176 49.7461 24.952 49.7461 24.664C49.7461 22.248 48.0661 20.888 45.6021 20.888C43.0101 20.888 41.3141 22.552 41.3141 25.032C41.3141 27.688 43.0261 29.16 45.6341 29.16ZM45.5701 22.248C47.2661 22.248 48.1141 22.952 48.1141 24.424V24.456H42.9461C43.0421 23.032 43.8101 22.248 45.5701 22.248ZM54.2403 29.16C56.0323 29.16 57.1843 28.216 57.5203 26.76H57.5683V31.72H59.2963V21.048H57.7123V23.256H57.5683C57.2483 21.784 56.1283 20.888 54.2563 20.888C51.7923 20.888 50.4003 22.568 50.4003 25.032C50.4003 27.496 51.7763 29.16 54.2403 29.16ZM52.1443 25.032C52.1443 23.112 53.1363 22.472 54.8003 22.472C56.5763 22.472 57.5683 23.304 57.5683 25.016V25.16C57.5683 26.792 56.5283 27.592 54.8323 27.592C53.1203 27.592 52.1443 26.936 52.1443 25.032ZM63.9661 29.16C66.0141 29.16 67.0701 27.88 67.3261 26.536H67.4221V29H69.0061V21.048H67.2941V24.984C67.2941 26.712 66.4781 27.608 64.7181 27.608C63.0381 27.608 62.3501 26.856 62.3501 25.368V21.048H60.6381V25.832C60.6381 27.672 61.7261 29.16 63.9661 29.16ZM74.3359 29.16C76.7039 29.16 78.3679 27.992 78.3679 26.296V26.152H76.6399V26.28C76.6399 27.224 75.9519 27.768 74.2879 27.768C72.4479 27.768 71.6959 26.952 71.6319 25.416H78.3839C78.4319 25.176 78.4479 24.952 78.4479 24.664C78.4479 22.248 76.7679 20.888 74.3039 20.888C71.7119 20.888 70.0159 22.552 70.0159 25.032C70.0159 27.688 71.7279 29.16 74.3359 29.16ZM74.2719 22.248C75.9679 22.248 76.8159 22.952 76.8159 24.424V24.456H71.6479C71.7439 23.032 72.5119 22.248 74.2719 22.248ZM83.2622 29.16C85.5022 29.16 86.9742 28.28 86.9742 26.792C86.9742 25.48 86.1102 24.84 84.2222 24.6L82.3822 24.344C81.1822 24.184 80.8622 23.96 80.8622 23.336C80.8622 22.584 81.3742 22.264 82.8302 22.264C84.5902 22.264 85.0702 22.76 85.0702 23.704V23.8H86.7822V23.752C86.7822 21.864 85.3102 20.888 82.8782 20.888C80.4302 20.888 79.1662 21.88 79.1662 23.272C79.1662 24.6 80.0782 25.24 81.5822 25.432L83.7582 25.72C84.8942 25.88 85.2782 26.088 85.2782 26.744C85.2782 27.448 84.8142 27.768 83.2622 27.768C81.5982 27.768 80.9742 27.432 80.9742 26.392V26.264H79.2462V26.312C79.2462 28.152 80.7022 29.16 83.2622 29.16ZM93.1969 29V27.448H91.7569C90.7649 27.448 90.3169 27.192 90.3169 26.216V22.488H93.1969V21.048H90.3169V19.304H88.6049V21.048H87.2609V22.488H88.6049V26.312C88.6049 28.248 89.6609 29 91.3729 29H93.1969ZM103.987 29.16C107.203 29.16 109.027 27.464 109.027 24.552V18.28H107.299V24.44C107.299 26.6 106.339 27.496 103.987 27.496C101.635 27.496 100.675 26.6 100.675 24.44V18.28H98.9626V24.552C98.9626 27.464 100.787 29.16 103.987 29.16ZM112.046 29V25.064C112.046 23.336 112.83 22.44 114.574 22.44C116.222 22.44 116.894 23.192 116.894 24.68V29H118.622V24.216C118.622 22.376 117.534 20.888 115.326 20.888C113.31 20.888 112.254 22.168 112.014 23.512H111.902V21.048H110.318V29H112.046ZM121.65 20.12V18.28H119.922V20.12H121.65ZM121.65 29V21.048H119.922V29H121.65ZM126.45 29.16C128.242 29.16 129.394 28.216 129.73 26.76H129.778V31.72H131.506V21.048H129.922V23.256H129.778C129.458 21.784 128.338 20.888 126.466 20.888C124.002 20.888 122.61 22.568 122.61 25.032C122.61 27.496 123.986 29.16 126.45 29.16ZM124.354 25.032C124.354 23.112 125.346 22.472 127.01 22.472C128.786 22.472 129.778 23.304 129.778 25.016V25.16C129.778 26.792 128.738 27.592 127.042 27.592C125.33 27.592 124.354 26.936 124.354 25.032ZM136.175 29.16C138.223 29.16 139.279 27.88 139.535 26.536H139.631V29H141.215V21.048H139.503V24.984C139.503 26.712 138.687 27.608 136.927 27.608C135.247 27.608 134.559 26.856 134.559 25.368V21.048H132.847V25.832C132.847 27.672 133.935 29.16 136.175 29.16ZM146.545 29.16C148.913 29.16 150.577 27.992 150.577 26.296V26.152H148.849V26.28C148.849 27.224 148.161 27.768 146.497 27.768C144.657 27.768 143.905 26.952 143.841 25.416H150.593C150.641 25.176 150.657 24.952 150.657 24.664C150.657 22.248 148.977 20.888 146.513 20.888C143.921 20.888 142.225 22.552 142.225 25.032C142.225 27.688 143.937 29.16 146.545 29.16ZM146.481 22.248C148.177 22.248 149.025 22.952 149.025 24.424V24.456H143.857C143.953 23.032 144.721 22.248 146.481 22.248ZM158.428 29V18.28H156.7V29H158.428ZM164.764 29C168.092 29 170.188 26.952 170.188 23.64C170.188 20.328 168.092 18.28 164.764 18.28H159.884V29H164.764ZM164.764 19.832C167.244 19.832 168.364 20.888 168.364 23.64C168.364 26.392 167.244 27.448 164.764 27.448H161.596V19.832H164.764Z" fill="white"/>
</svg>
